<svg xmlns="http://www.w3.org/2000/svg" viewBox="0 0 560 220">
<defs><linearGradient id="bg" x1="0%" y1="0%" x2="100%" y2="100%"><stop offset="0%" style="stop-color:#06091A"/><stop offset="100%" style="stop-color:#0B1028"/></linearGradient></defs>
<rect width="560" height="220" fill="url(#bg)" rx="18"/>
<circle cx="28" cy="28" r="1.2" fill="#fff" opacity="0.05"/><circle cx="28" cy="64" r="1.2" fill="#fff" opacity="0.05"/><circle cx="28" cy="100" r="1.2" fill="#fff" opacity="0.05"/><circle cx="28" cy="136" r="1.2" fill="#fff" opacity="0.05"/><circle cx="28" cy="172" r="1.2" fill="#fff" opacity="0.05"/><circle cx="28" cy="208" r="1.2" fill="#fff" opacity="0.05"/><circle cx="64" cy="28" r="1.2" fill="#fff" opacity="0.05"/><circle cx="64" cy="64" r="1.2" fill="#fff" opacity="0.05"/><circle cx="64" cy="100" r="1.2" fill="#fff" opacity="0.05"/><circle cx="64" cy="136" r="1.2" fill="#fff" opacity="0.05"/><circle cx="64" cy="172" r="1.2" fill="#fff" opacity="0.05"/><circle cx="64" cy="208" r="1.2" fill="#fff" opacity="0.05"/><circle cx="100" cy="28" r="1.2" fill="#fff" opacity="0.05"/><circle cx="100" cy="64" r="1.2" fill="#fff" opacity="0.05"/><circle cx="100" cy="100" r="1.2" fill="#fff" opacity="0.05"/><circle cx="100" cy="136" r="1.2" fill="#fff" opacity="0.05"/><circle cx="100" cy="172" r="1.2" fill="#fff" opacity="0.05"/><circle cx="100" cy="208" r="1.2" fill="#fff" opacity="0.05"/><circle cx="136" cy="28" r="1.2" fill="#fff" opacity="0.05"/><circle cx="136" cy="64" r="1.2" fill="#fff" opacity="0.05"/><circle cx="136" cy="100" r="1.2" fill="#fff" opacity="0.05"/><circle cx="136" cy="136" r="1.2" fill="#fff" opacity="0.05"/><circle cx="136" cy="172" r="1.2" fill="#fff" opacity="0.05"/><circle cx="136" cy="208" r="1.2" fill="#fff" opacity="0.05"/><circle cx="172" cy="28" r="1.2" fill="#fff" opacity="0.05"/><circle cx="172" cy="64" r="1.2" fill="#fff" opacity="0.05"/><circle cx="172" cy="100" r="1.2" fill="#fff" opacity="0.05"/><circle cx="172" cy="136" r="1.2" fill="#fff" opacity="0.05"/><circle cx="172" cy="172" r="1.2" fill="#fff" opacity="0.05"/><circle cx="172" cy="208" r="1.2" fill="#fff" opacity="0.05"/><circle cx="208" cy="28" r="1.2" fill="#fff" opacity="0.05"/><circle cx="208" cy="64" r="1.2" fill="#fff" opacity="0.05"/><circle cx="208" cy="100" r="1.2" fill="#fff" opacity="0.05"/><circle cx="208" cy="136" r="1.2" fill="#fff" opacity="0.05"/><circle cx="208" cy="172" r="1.2" fill="#fff" opacity="0.05"/><circle cx="208" cy="208" r="1.2" fill="#fff" opacity="0.05"/><circle cx="244" cy="28" r="1.2" fill="#fff" opacity="0.05"/><circle cx="244" cy="64" r="1.2" fill="#fff" opacity="0.05"/><circle cx="244" cy="100" r="1.2" fill="#fff" opacity="0.05"/><circle cx="244" cy="136" r="1.2" fill="#fff" opacity="0.05"/><circle cx="244" cy="172" r="1.2" fill="#fff" opacity="0.05"/><circle cx="244" cy="208" r="1.2" fill="#fff" opacity="0.05"/><circle cx="280" cy="28" r="1.2" fill="#fff" opacity="0.05"/><circle cx="280" cy="64" r="1.2" fill="#fff" opacity="0.05"/><circle cx="280" cy="100" r="1.2" fill="#fff" opacity="0.05"/><circle cx="280" cy="136" r="1.2" fill="#fff" opacity="0.05"/><circle cx="280" cy="172" r="1.2" fill="#fff" opacity="0.05"/><circle cx="280" cy="208" r="1.2" fill="#fff" opacity="0.05"/><circle cx="316" cy="28" r="1.2" fill="#fff" opacity="0.05"/><circle cx="316" cy="64" r="1.2" fill="#fff" opacity="0.05"/><circle cx="316" cy="100" r="1.2" fill="#fff" opacity="0.05"/><circle cx="316" cy="136" r="1.2" fill="#fff" opacity="0.05"/><circle cx="316" cy="172" r="1.2" fill="#fff" opacity="0.05"/><circle cx="316" cy="208" r="1.2" fill="#fff" opacity="0.05"/><circle cx="352" cy="28" r="1.2" fill="#fff" opacity="0.05"/><circle cx="352" cy="64" r="1.2" fill="#fff" opacity="0.05"/><circle cx="352" cy="100" r="1.2" fill="#fff" opacity="0.05"/><circle cx="352" cy="136" r="1.2" fill="#fff" opacity="0.05"/><circle cx="352" cy="172" r="1.2" fill="#fff" opacity="0.05"/><circle cx="352" cy="208" r="1.2" fill="#fff" opacity="0.05"/><circle cx="388" cy="28" r="1.2" fill="#fff" opacity="0.05"/><circle cx="388" cy="64" r="1.2" fill="#fff" opacity="0.05"/><circle cx="388" cy="100" r="1.2" fill="#fff" opacity="0.05"/><circle cx="388" cy="136" r="1.2" fill="#fff" opacity="0.05"/><circle cx="388" cy="172" r="1.2" fill="#fff" opacity="0.05"/><circle cx="388" cy="208" r="1.2" fill="#fff" opacity="0.05"/><circle cx="424" cy="28" r="1.2" fill="#fff" opacity="0.05"/><circle cx="424" cy="64" r="1.2" fill="#fff" opacity="0.05"/><circle cx="424" cy="100" r="1.2" fill="#fff" opacity="0.05"/><circle cx="424" cy="136" r="1.2" fill="#fff" opacity="0.05"/><circle cx="424" cy="172" r="1.2" fill="#fff" opacity="0.05"/><circle cx="424" cy="208" r="1.2" fill="#fff" opacity="0.05"/><circle cx="460" cy="28" r="1.2" fill="#fff" opacity="0.05"/><circle cx="460" cy="64" r="1.2" fill="#fff" opacity="0.05"/><circle cx="460" cy="100" r="1.2" fill="#fff" opacity="0.05"/><circle cx="460" cy="136" r="1.2" fill="#fff" opacity="0.05"/><circle cx="460" cy="172" r="1.2" fill="#fff" opacity="0.05"/><circle cx="460" cy="208" r="1.2" fill="#fff" opacity="0.05"/><circle cx="496" cy="28" r="1.2" fill="#fff" opacity="0.05"/><circle cx="496" cy="64" r="1.2" fill="#fff" opacity="0.05"/><circle cx="496" cy="100" r="1.2" fill="#fff" opacity="0.05"/><circle cx="496" cy="136" r="1.2" fill="#fff" opacity="0.05"/><circle cx="496" cy="172" r="1.2" fill="#fff" opacity="0.05"/><circle cx="496" cy="208" r="1.2" fill="#fff" opacity="0.05"/><circle cx="532" cy="28" r="1.2" fill="#fff" opacity="0.05"/><circle cx="532" cy="64" r="1.2" fill="#fff" opacity="0.05"/><circle cx="532" cy="100" r="1.2" fill="#fff" opacity="0.05"/><circle cx="532" cy="136" r="1.2" fill="#fff" opacity="0.05"/><circle cx="532" cy="172" r="1.2" fill="#fff" opacity="0.05"/><circle cx="532" cy="208" r="1.2" fill="#fff" opacity="0.05"/>
<text x="280" y="28" text-anchor="middle" font-family="sans-serif" font-size="14" font-weight="800" fill="#EEF2FF">Expert Tech Insights from Senior Engineers</text>
<rect x="18"  y="40" width="254" height="168" rx="14" fill="rgba(59,123,255,0.07)" stroke="rgba(59,123,255,0.2)" stroke-width="1.5"/>
<rect x="28"  y="50" width="234" height="72" rx="10" fill="rgba(59,123,255,0.13)"/>
<!-- Article icon -->
<rect x="116" y="68" width="40" height="36" rx="6" fill="none" stroke="#6A9FFF" stroke-width="2"/>
<line x1="122" y1="76" x2="150" y2="76" stroke="#6A9FFF" stroke-width="1.5"/><line x1="122" y1="82" x2="150" y2="82" stroke="#6A9FFF" stroke-width="1.5"/><line x1="122" y1="88" x2="140" y2="88" stroke="#6A9FFF" stroke-width="1.5"/>
<rect x="28"  y="130" width="90" height="10" rx="5" fill="rgba(59,123,255,0.3)"/>
<rect x="28"  y="148" width="234" height="7" rx="3" fill="rgba(255,255,255,0.06)"/>
<rect x="28"  y="160" width="200" height="7" rx="3" fill="rgba(255,255,255,0.05)"/>
<rect x="28"  y="172" width="150" height="7" rx="3" fill="rgba(255,255,255,0.04)"/>
<text x="38"  y="196" font-family="sans-serif" font-size="8" fill="#4B5982">Rahul Sharma · May 15, 2025</text>
<rect x="160" y="188" width="60" height="16" rx="8" fill="rgba(59,123,255,0.15)" stroke="rgba(59,123,255,0.3)" stroke-width="1"/>
<text x="190" y="200" text-anchor="middle" font-family="sans-serif" font-size="7" fill="#6A9FFF">AI &amp; ML</text>

<rect x="288" y="40" width="254" height="168" rx="14" fill="rgba(139,92,246,0.07)" stroke="rgba(139,92,246,0.2)" stroke-width="1.5"/>
<rect x="298" y="50" width="234" height="72" rx="10" fill="rgba(139,92,246,0.13)"/>
<!-- Mobile icon -->
<rect x="395" y="62" width="26" height="46" rx="5" fill="none" stroke="#C4B5FD" stroke-width="2"/>
<circle cx="408" cy="102" r="3" fill="#C4B5FD"/>
<line x1="400" y1="68" x2="416" y2="68" stroke="#C4B5FD" stroke-width="1.5"/>
<rect x="298" y="130" width="110" height="10" rx="5" fill="rgba(139,92,246,0.3)"/>
<rect x="298" y="148" width="234" height="7" rx="3" fill="rgba(255,255,255,0.06)"/>
<rect x="298" y="160" width="210" height="7" rx="3" fill="rgba(255,255,255,0.05)"/>
<rect x="298" y="172" width="170" height="7" rx="3" fill="rgba(255,255,255,0.04)"/>
<text x="308" y="196" font-family="sans-serif" font-size="8" fill="#4B5982">Aditya Verma · Apr 28, 2025</text>
<rect x="430" y="188" width="70" height="16" rx="8" fill="rgba(139,92,246,0.15)" stroke="rgba(139,92,246,0.3)" stroke-width="1"/>
<text x="465" y="200" text-anchor="middle" font-family="sans-serif" font-size="7" fill="#C4B5FD">Mobile Dev</text>
</svg>