<svg xmlns="http://www.w3.org/2000/svg" viewBox="0 0 520 380">
<defs>
  <linearGradient id="bg" x1="0%" y1="0%" x2="100%" y2="100%"><stop offset="0%" style="stop-color:#06091A"/><stop offset="100%" style="stop-color:#0B1028"/></linearGradient>
  <linearGradient id="ga" x1="0%" y1="0%" x2="100%" y2="100%"><stop offset="0%" style="stop-color:#F59E0B"/><stop offset="100%" style="stop-color:#EC4899"/></linearGradient>
  <filter id="glow"><feGaussianBlur stdDeviation="4" result="blur"/><feMerge><feMergeNode in="blur"/><feMergeNode in="SourceGraphic"/></feMerge></filter>
</defs>
<rect width="520" height="380" fill="url(#bg)" rx="20"/>
<g opacity="0.05"><circle cx="20" cy="20" r="1" fill="#fff"/><circle cx="20" cy="52" r="1" fill="#fff"/><circle cx="20" cy="84" r="1" fill="#fff"/><circle cx="20" cy="116" r="1" fill="#fff"/><circle cx="20" cy="148" r="1" fill="#fff"/><circle cx="20" cy="180" r="1" fill="#fff"/><circle cx="20" cy="212" r="1" fill="#fff"/><circle cx="20" cy="244" r="1" fill="#fff"/><circle cx="20" cy="276" r="1" fill="#fff"/><circle cx="20" cy="308" r="1" fill="#fff"/><circle cx="20" cy="340" r="1" fill="#fff"/><circle cx="20" cy="372" r="1" fill="#fff"/><circle cx="52" cy="20" r="1" fill="#fff"/><circle cx="52" cy="52" r="1" fill="#fff"/><circle cx="52" cy="84" r="1" fill="#fff"/><circle cx="52" cy="116" r="1" fill="#fff"/><circle cx="52" cy="148" r="1" fill="#fff"/><circle cx="52" cy="180" r="1" fill="#fff"/><circle cx="52" cy="212" r="1" fill="#fff"/><circle cx="52" cy="244" r="1" fill="#fff"/><circle cx="52" cy="276" r="1" fill="#fff"/><circle cx="52" cy="308" r="1" fill="#fff"/><circle cx="52" cy="340" r="1" fill="#fff"/><circle cx="52" cy="372" r="1" fill="#fff"/><circle cx="84" cy="20" r="1" fill="#fff"/><circle cx="84" cy="52" r="1" fill="#fff"/><circle cx="84" cy="84" r="1" fill="#fff"/><circle cx="84" cy="116" r="1" fill="#fff"/><circle cx="84" cy="148" r="1" fill="#fff"/><circle cx="84" cy="180" r="1" fill="#fff"/><circle cx="84" cy="212" r="1" fill="#fff"/><circle cx="84" cy="244" r="1" fill="#fff"/><circle cx="84" cy="276" r="1" fill="#fff"/><circle cx="84" cy="308" r="1" fill="#fff"/><circle cx="84" cy="340" r="1" fill="#fff"/><circle cx="84" cy="372" r="1" fill="#fff"/><circle cx="116" cy="20" r="1" fill="#fff"/><circle cx="116" cy="52" r="1" fill="#fff"/><circle cx="116" cy="84" r="1" fill="#fff"/><circle cx="116" cy="116" r="1" fill="#fff"/><circle cx="116" cy="148" r="1" fill="#fff"/><circle cx="116" cy="180" r="1" fill="#fff"/><circle cx="116" cy="212" r="1" fill="#fff"/><circle cx="116" cy="244" r="1" fill="#fff"/><circle cx="116" cy="276" r="1" fill="#fff"/><circle cx="116" cy="308" r="1" fill="#fff"/><circle cx="116" cy="340" r="1" fill="#fff"/><circle cx="116" cy="372" r="1" fill="#fff"/><circle cx="148" cy="20" r="1" fill="#fff"/><circle cx="148" cy="52" r="1" fill="#fff"/><circle cx="148" cy="84" r="1" fill="#fff"/><circle cx="148" cy="116" r="1" fill="#fff"/><circle cx="148" cy="148" r="1" fill="#fff"/><circle cx="148" cy="180" r="1" fill="#fff"/><circle cx="148" cy="212" r="1" fill="#fff"/><circle cx="148" cy="244" r="1" fill="#fff"/><circle cx="148" cy="276" r="1" fill="#fff"/><circle cx="148" cy="308" r="1" fill="#fff"/><circle cx="148" cy="340" r="1" fill="#fff"/><circle cx="148" cy="372" r="1" fill="#fff"/><circle cx="180" cy="20" r="1" fill="#fff"/><circle cx="180" cy="52" r="1" fill="#fff"/><circle cx="180" cy="84" r="1" fill="#fff"/><circle cx="180" cy="116" r="1" fill="#fff"/><circle cx="180" cy="148" r="1" fill="#fff"/><circle cx="180" cy="180" r="1" fill="#fff"/><circle cx="180" cy="212" r="1" fill="#fff"/><circle cx="180" cy="244" r="1" fill="#fff"/><circle cx="180" cy="276" r="1" fill="#fff"/><circle cx="180" cy="308" r="1" fill="#fff"/><circle cx="180" cy="340" r="1" fill="#fff"/><circle cx="180" cy="372" r="1" fill="#fff"/><circle cx="212" cy="20" r="1" fill="#fff"/><circle cx="212" cy="52" r="1" fill="#fff"/><circle cx="212" cy="84" r="1" fill="#fff"/><circle cx="212" cy="116" r="1" fill="#fff"/><circle cx="212" cy="148" r="1" fill="#fff"/><circle cx="212" cy="180" r="1" fill="#fff"/><circle cx="212" cy="212" r="1" fill="#fff"/><circle cx="212" cy="244" r="1" fill="#fff"/><circle cx="212" cy="276" r="1" fill="#fff"/><circle cx="212" cy="308" r="1" fill="#fff"/><circle cx="212" cy="340" r="1" fill="#fff"/><circle cx="212" cy="372" r="1" fill="#fff"/><circle cx="244" cy="20" r="1" fill="#fff"/><circle cx="244" cy="52" r="1" fill="#fff"/><circle cx="244" cy="84" r="1" fill="#fff"/><circle cx="244" cy="116" r="1" fill="#fff"/><circle cx="244" cy="148" r="1" fill="#fff"/><circle cx="244" cy="180" r="1" fill="#fff"/><circle cx="244" cy="212" r="1" fill="#fff"/><circle cx="244" cy="244" r="1" fill="#fff"/><circle cx="244" cy="276" r="1" fill="#fff"/><circle cx="244" cy="308" r="1" fill="#fff"/><circle cx="244" cy="340" r="1" fill="#fff"/><circle cx="244" cy="372" r="1" fill="#fff"/><circle cx="276" cy="20" r="1" fill="#fff"/><circle cx="276" cy="52" r="1" fill="#fff"/><circle cx="276" cy="84" r="1" fill="#fff"/><circle cx="276" cy="116" r="1" fill="#fff"/><circle cx="276" cy="148" r="1" fill="#fff"/><circle cx="276" cy="180" r="1" fill="#fff"/><circle cx="276" cy="212" r="1" fill="#fff"/><circle cx="276" cy="244" r="1" fill="#fff"/><circle cx="276" cy="276" r="1" fill="#fff"/><circle cx="276" cy="308" r="1" fill="#fff"/><circle cx="276" cy="340" r="1" fill="#fff"/><circle cx="276" cy="372" r="1" fill="#fff"/><circle cx="308" cy="20" r="1" fill="#fff"/><circle cx="308" cy="52" r="1" fill="#fff"/><circle cx="308" cy="84" r="1" fill="#fff"/><circle cx="308" cy="116" r="1" fill="#fff"/><circle cx="308" cy="148" r="1" fill="#fff"/><circle cx="308" cy="180" r="1" fill="#fff"/><circle cx="308" cy="212" r="1" fill="#fff"/><circle cx="308" cy="244" r="1" fill="#fff"/><circle cx="308" cy="276" r="1" fill="#fff"/><circle cx="308" cy="308" r="1" fill="#fff"/><circle cx="308" cy="340" r="1" fill="#fff"/><circle cx="308" cy="372" r="1" fill="#fff"/><circle cx="340" cy="20" r="1" fill="#fff"/><circle cx="340" cy="52" r="1" fill="#fff"/><circle cx="340" cy="84" r="1" fill="#fff"/><circle cx="340" cy="116" r="1" fill="#fff"/><circle cx="340" cy="148" r="1" fill="#fff"/><circle cx="340" cy="180" r="1" fill="#fff"/><circle cx="340" cy="212" r="1" fill="#fff"/><circle cx="340" cy="244" r="1" fill="#fff"/><circle cx="340" cy="276" r="1" fill="#fff"/><circle cx="340" cy="308" r="1" fill="#fff"/><circle cx="340" cy="340" r="1" fill="#fff"/><circle cx="340" cy="372" r="1" fill="#fff"/><circle cx="372" cy="20" r="1" fill="#fff"/><circle cx="372" cy="52" r="1" fill="#fff"/><circle cx="372" cy="84" r="1" fill="#fff"/><circle cx="372" cy="116" r="1" fill="#fff"/><circle cx="372" cy="148" r="1" fill="#fff"/><circle cx="372" cy="180" r="1" fill="#fff"/><circle cx="372" cy="212" r="1" fill="#fff"/><circle cx="372" cy="244" r="1" fill="#fff"/><circle cx="372" cy="276" r="1" fill="#fff"/><circle cx="372" cy="308" r="1" fill="#fff"/><circle cx="372" cy="340" r="1" fill="#fff"/><circle cx="372" cy="372" r="1" fill="#fff"/><circle cx="404" cy="20" r="1" fill="#fff"/><circle cx="404" cy="52" r="1" fill="#fff"/><circle cx="404" cy="84" r="1" fill="#fff"/><circle cx="404" cy="116" r="1" fill="#fff"/><circle cx="404" cy="148" r="1" fill="#fff"/><circle cx="404" cy="180" r="1" fill="#fff"/><circle cx="404" cy="212" r="1" fill="#fff"/><circle cx="404" cy="244" r="1" fill="#fff"/><circle cx="404" cy="276" r="1" fill="#fff"/><circle cx="404" cy="308" r="1" fill="#fff"/><circle cx="404" cy="340" r="1" fill="#fff"/><circle cx="404" cy="372" r="1" fill="#fff"/><circle cx="436" cy="20" r="1" fill="#fff"/><circle cx="436" cy="52" r="1" fill="#fff"/><circle cx="436" cy="84" r="1" fill="#fff"/><circle cx="436" cy="116" r="1" fill="#fff"/><circle cx="436" cy="148" r="1" fill="#fff"/><circle cx="436" cy="180" r="1" fill="#fff"/><circle cx="436" cy="212" r="1" fill="#fff"/><circle cx="436" cy="244" r="1" fill="#fff"/><circle cx="436" cy="276" r="1" fill="#fff"/><circle cx="436" cy="308" r="1" fill="#fff"/><circle cx="436" cy="340" r="1" fill="#fff"/><circle cx="436" cy="372" r="1" fill="#fff"/><circle cx="468" cy="20" r="1" fill="#fff"/><circle cx="468" cy="52" r="1" fill="#fff"/><circle cx="468" cy="84" r="1" fill="#fff"/><circle cx="468" cy="116" r="1" fill="#fff"/><circle cx="468" cy="148" r="1" fill="#fff"/><circle cx="468" cy="180" r="1" fill="#fff"/><circle cx="468" cy="212" r="1" fill="#fff"/><circle cx="468" cy="244" r="1" fill="#fff"/><circle cx="468" cy="276" r="1" fill="#fff"/><circle cx="468" cy="308" r="1" fill="#fff"/><circle cx="468" cy="340" r="1" fill="#fff"/><circle cx="468" cy="372" r="1" fill="#fff"/><circle cx="500" cy="20" r="1" fill="#fff"/><circle cx="500" cy="52" r="1" fill="#fff"/><circle cx="500" cy="84" r="1" fill="#fff"/><circle cx="500" cy="116" r="1" fill="#fff"/><circle cx="500" cy="148" r="1" fill="#fff"/><circle cx="500" cy="180" r="1" fill="#fff"/><circle cx="500" cy="212" r="1" fill="#fff"/><circle cx="500" cy="244" r="1" fill="#fff"/><circle cx="500" cy="276" r="1" fill="#fff"/><circle cx="500" cy="308" r="1" fill="#fff"/><circle cx="500" cy="340" r="1" fill="#fff"/><circle cx="500" cy="372" r="1" fill="#fff"/></g>
<!-- Glow -->
<ellipse cx="260" cy="130" rx="140" ry="80" fill="#F59E0B" opacity="0.06"/>
<!-- Main cloud -->
<g filter="url(#glow)">
  <ellipse cx="260" cy="110" rx="110" ry="60" fill="rgba(245,158,11,0.08)" stroke="#F59E0B" stroke-width="1.5" stroke-dasharray="6,3"/>
  <ellipse cx="200" cy="125" rx="65" ry="45" fill="rgba(245,158,11,0.06)" stroke="#F59E0B" stroke-width="1"/>
  <ellipse cx="320" cy="120" rx="70" ry="48" fill="rgba(245,158,11,0.06)" stroke="#F59E0B" stroke-width="1"/>
</g>
<!-- Cloud icon inside -->
<g transform="translate(230,82)" opacity="0.6">
  <path d="M60 40 A30 30 0 0 0 0 40 A20 20 0 0 0 10 78 L70 78 A20 20 0 0 0 80 60 A25 25 0 0 0 60 40Z" fill="none" stroke="#F59E0B" stroke-width="2"/>
</g>
<text x="260" y="116" text-anchor="middle" font-family="sans-serif" font-size="9" font-weight="700" fill="#FCD34D">AWS · Azure · GCP</text>
<!-- Data lines down to servers -->
<g stroke-dasharray="4,3" opacity="0.5">
  <line x1="180" y1="165" x2="100" y2="220" stroke="#F59E0B" stroke-width="1.5"/>
  <line x1="220" y1="168" x2="180" y2="220" stroke="#F59E0B" stroke-width="1.5"/>
  <line x1="260" y1="170" x2="260" y2="220" stroke="#F59E0B" stroke-width="1.5"/>
  <line x1="300" y1="168" x2="340" y2="220" stroke="#F59E0B" stroke-width="1.5"/>
  <line x1="340" y1="165" x2="420" y2="220" stroke="#F59E0B" stroke-width="1.5"/>
</g>
<!-- Animated pulses -->
<circle r="3" fill="#F59E0B"><animateMotion dur="1.8s" repeatCount="indefinite" path="M 180,165 L 100,220"/><animate attributeName="opacity" values="0;1;0" dur="1.8s" repeatCount="indefinite"/></circle>
<circle r="3" fill="#22D3EE"><animateMotion dur="2s" begin="0.4s" repeatCount="indefinite" path="M 260,170 L 260,220"/><animate attributeName="opacity" values="0;1;0" dur="2s" begin="0.4s" repeatCount="indefinite"/></circle>
<circle r="3" fill="#10B981"><animateMotion dur="1.6s" begin="0.8s" repeatCount="indefinite" path="M 340,165 L 420,220"/><animate attributeName="opacity" values="0;1;0" dur="1.6s" begin="0.8s" repeatCount="indefinite"/></circle>
<!-- Server nodes -->
<!-- Node 1 - Kubernetes -->
<rect x="60" y="220" width="80" height="64" rx="12" fill="rgba(34,211,238,0.1)" stroke="#22D3EE" stroke-width="1.5"/>
<rect x="70" y="230" width="60" height="16" rx="4" fill="rgba(34,211,238,0.2)"/>
<circle cx="76" cy="238" r="3" fill="#10B981"/><circle cx="84" cy="238" r="3" fill="#F59E0B"/><circle cx="92" cy="238" r="3" fill="#EF4444"/>
<text x="100" y="255" text-anchor="middle" font-family="sans-serif" font-size="9" font-weight="700" fill="#67E8F9">K8s</text>
<text x="100" y="269" text-anchor="middle" font-family="sans-serif" font-size="8" fill="#4B5982">Kubernetes</text>
<text x="100" y="279" text-anchor="middle" font-family="sans-serif" font-size="8" fill="#4B5982">Cluster</text>
<!-- Node 2 - Docker -->
<rect x="155" y="220" width="80" height="64" rx="12" fill="rgba(59,123,255,0.1)" stroke="#3B7BFF" stroke-width="1.5"/>
<rect x="165" y="230" width="60" height="16" rx="4" fill="rgba(59,123,255,0.2)"/>
<text x="195" y="255" text-anchor="middle" font-family="sans-serif" font-size="16">🐳</text>
<text x="195" y="269" text-anchor="middle" font-family="sans-serif" font-size="9" font-weight="700" fill="#6A9FFF">Docker</text>
<text x="195" y="279" text-anchor="middle" font-family="sans-serif" font-size="8" fill="#4B5982">Containers</text>
<!-- Node 3 - CI/CD -->
<rect x="220" y="220" width="80" height="64" rx="12" fill="rgba(139,92,246,0.1)" stroke="#8B5CF6" stroke-width="1.5"/>
<text x="260" y="250" text-anchor="middle" font-family="sans-serif" font-size="16">⚙️</text>
<text x="260" y="265" text-anchor="middle" font-family="sans-serif" font-size="9" font-weight="700" fill="#C4B5FD">CI/CD</text>
<text x="260" y="277" text-anchor="middle" font-family="sans-serif" font-size="8" fill="#4B5982">Pipeline</text>
<!-- Node 4 - Terraform -->
<rect x="285" y="220" width="80" height="64" rx="12" fill="rgba(16,185,129,0.1)" stroke="#10B981" stroke-width="1.5"/>
<text x="325" y="250" text-anchor="middle" font-family="sans-serif" font-size="16">🏗</text>
<text x="325" y="265" text-anchor="middle" font-family="sans-serif" font-size="9" font-weight="700" fill="#34D399">Terraform</text>
<text x="325" y="277" text-anchor="middle" font-family="sans-serif" font-size="8" fill="#4B5982">IaC</text>
<!-- Node 5 - Monitor -->
<rect x="380" y="220" width="80" height="64" rx="12" fill="rgba(245,158,11,0.1)" stroke="#F59E0B" stroke-width="1.5"/>
<text x="420" y="250" text-anchor="middle" font-family="sans-serif" font-size="16">📊</text>
<text x="420" y="265" text-anchor="middle" font-family="sans-serif" font-size="9" font-weight="700" fill="#FCD34D">Monitor</text>
<text x="420" y="277" text-anchor="middle" font-family="sans-serif" font-size="8" fill="#4B5982">Datadog/Grafana</text>
<!-- Metrics bottom -->
<rect x="60" y="300" width="400" height="42" rx="12" fill="rgba(255,255,255,0.02)" stroke="rgba(255,255,255,0.06)" stroke-width="1"/>
<g font-family="sans-serif" font-size="9" text-anchor="middle">
  <text x="130" y="316" fill="#34D399" font-weight="700">99.99%</text><text x="130" y="330" fill="#4B5982">Uptime SLA</text>
  <text x="210" y="316" fill="#6A9FFF" font-weight="700">45%</text><text x="210" y="330" fill="#4B5982">Cost Saving</text>
  <text x="290" y="316" fill="#C4B5FD" font-weight="700">&lt;2s</text><text x="290" y="330" fill="#4B5982">Deploy Time</text>
  <text x="380" y="316" fill="#FCD34D" font-weight="700">24/7</text><text x="380" y="330" fill="#4B5982">Monitoring</text>
</g>
<text x="260" y="362" text-anchor="middle" font-family="sans-serif" font-size="11" font-weight="600" fill="#6A9FFF">Cloud Architecture · AWS · Kubernetes · Terraform · CI/CD</text>
</svg>