<svg xmlns="http://www.w3.org/2000/svg" viewBox="0 0 520 300">
<defs>
  <linearGradient id="bg" x1="0%" y1="0%" x2="100%" y2="100%"><stop offset="0%" style="stop-color:#06091A"/><stop offset="100%" style="stop-color:#0B1028"/></linearGradient>
</defs>
<rect width="520" height="300" fill="url(#bg)" rx="20"/>
<g opacity="0.05"><circle cx="20" cy="20" r="1" fill="#fff"/><circle cx="20" cy="50" r="1" fill="#fff"/><circle cx="20" cy="80" r="1" fill="#fff"/><circle cx="20" cy="110" r="1" fill="#fff"/><circle cx="20" cy="140" r="1" fill="#fff"/><circle cx="20" cy="170" r="1" fill="#fff"/><circle cx="20" cy="200" r="1" fill="#fff"/><circle cx="20" cy="230" r="1" fill="#fff"/><circle cx="20" cy="260" r="1" fill="#fff"/><circle cx="20" cy="290" r="1" fill="#fff"/><circle cx="50" cy="20" r="1" fill="#fff"/><circle cx="50" cy="50" r="1" fill="#fff"/><circle cx="50" cy="80" r="1" fill="#fff"/><circle cx="50" cy="110" r="1" fill="#fff"/><circle cx="50" cy="140" r="1" fill="#fff"/><circle cx="50" cy="170" r="1" fill="#fff"/><circle cx="50" cy="200" r="1" fill="#fff"/><circle cx="50" cy="230" r="1" fill="#fff"/><circle cx="50" cy="260" r="1" fill="#fff"/><circle cx="50" cy="290" r="1" fill="#fff"/><circle cx="80" cy="20" r="1" fill="#fff"/><circle cx="80" cy="50" r="1" fill="#fff"/><circle cx="80" cy="80" r="1" fill="#fff"/><circle cx="80" cy="110" r="1" fill="#fff"/><circle cx="80" cy="140" r="1" fill="#fff"/><circle cx="80" cy="170" r="1" fill="#fff"/><circle cx="80" cy="200" r="1" fill="#fff"/><circle cx="80" cy="230" r="1" fill="#fff"/><circle cx="80" cy="260" r="1" fill="#fff"/><circle cx="80" cy="290" r="1" fill="#fff"/><circle cx="110" cy="20" r="1" fill="#fff"/><circle cx="110" cy="50" r="1" fill="#fff"/><circle cx="110" cy="80" r="1" fill="#fff"/><circle cx="110" cy="110" r="1" fill="#fff"/><circle cx="110" cy="140" r="1" fill="#fff"/><circle cx="110" cy="170" r="1" fill="#fff"/><circle cx="110" cy="200" r="1" fill="#fff"/><circle cx="110" cy="230" r="1" fill="#fff"/><circle cx="110" cy="260" r="1" fill="#fff"/><circle cx="110" cy="290" r="1" fill="#fff"/><circle cx="140" cy="20" r="1" fill="#fff"/><circle cx="140" cy="50" r="1" fill="#fff"/><circle cx="140" cy="80" r="1" fill="#fff"/><circle cx="140" cy="110" r="1" fill="#fff"/><circle cx="140" cy="140" r="1" fill="#fff"/><circle cx="140" cy="170" r="1" fill="#fff"/><circle cx="140" cy="200" r="1" fill="#fff"/><circle cx="140" cy="230" r="1" fill="#fff"/><circle cx="140" cy="260" r="1" fill="#fff"/><circle cx="140" cy="290" r="1" fill="#fff"/><circle cx="170" cy="20" r="1" fill="#fff"/><circle cx="170" cy="50" r="1" fill="#fff"/><circle cx="170" cy="80" r="1" fill="#fff"/><circle cx="170" cy="110" r="1" fill="#fff"/><circle cx="170" cy="140" r="1" fill="#fff"/><circle cx="170" cy="170" r="1" fill="#fff"/><circle cx="170" cy="200" r="1" fill="#fff"/><circle cx="170" cy="230" r="1" fill="#fff"/><circle cx="170" cy="260" r="1" fill="#fff"/><circle cx="170" cy="290" r="1" fill="#fff"/><circle cx="200" cy="20" r="1" fill="#fff"/><circle cx="200" cy="50" r="1" fill="#fff"/><circle cx="200" cy="80" r="1" fill="#fff"/><circle cx="200" cy="110" r="1" fill="#fff"/><circle cx="200" cy="140" r="1" fill="#fff"/><circle cx="200" cy="170" r="1" fill="#fff"/><circle cx="200" cy="200" r="1" fill="#fff"/><circle cx="200" cy="230" r="1" fill="#fff"/><circle cx="200" cy="260" r="1" fill="#fff"/><circle cx="200" cy="290" r="1" fill="#fff"/><circle cx="230" cy="20" r="1" fill="#fff"/><circle cx="230" cy="50" r="1" fill="#fff"/><circle cx="230" cy="80" r="1" fill="#fff"/><circle cx="230" cy="110" r="1" fill="#fff"/><circle cx="230" cy="140" r="1" fill="#fff"/><circle cx="230" cy="170" r="1" fill="#fff"/><circle cx="230" cy="200" r="1" fill="#fff"/><circle cx="230" cy="230" r="1" fill="#fff"/><circle cx="230" cy="260" r="1" fill="#fff"/><circle cx="230" cy="290" r="1" fill="#fff"/><circle cx="260" cy="20" r="1" fill="#fff"/><circle cx="260" cy="50" r="1" fill="#fff"/><circle cx="260" cy="80" r="1" fill="#fff"/><circle cx="260" cy="110" r="1" fill="#fff"/><circle cx="260" cy="140" r="1" fill="#fff"/><circle cx="260" cy="170" r="1" fill="#fff"/><circle cx="260" cy="200" r="1" fill="#fff"/><circle cx="260" cy="230" r="1" fill="#fff"/><circle cx="260" cy="260" r="1" fill="#fff"/><circle cx="260" cy="290" r="1" fill="#fff"/><circle cx="290" cy="20" r="1" fill="#fff"/><circle cx="290" cy="50" r="1" fill="#fff"/><circle cx="290" cy="80" r="1" fill="#fff"/><circle cx="290" cy="110" r="1" fill="#fff"/><circle cx="290" cy="140" r="1" fill="#fff"/><circle cx="290" cy="170" r="1" fill="#fff"/><circle cx="290" cy="200" r="1" fill="#fff"/><circle cx="290" cy="230" r="1" fill="#fff"/><circle cx="290" cy="260" r="1" fill="#fff"/><circle cx="290" cy="290" r="1" fill="#fff"/><circle cx="320" cy="20" r="1" fill="#fff"/><circle cx="320" cy="50" r="1" fill="#fff"/><circle cx="320" cy="80" r="1" fill="#fff"/><circle cx="320" cy="110" r="1" fill="#fff"/><circle cx="320" cy="140" r="1" fill="#fff"/><circle cx="320" cy="170" r="1" fill="#fff"/><circle cx="320" cy="200" r="1" fill="#fff"/><circle cx="320" cy="230" r="1" fill="#fff"/><circle cx="320" cy="260" r="1" fill="#fff"/><circle cx="320" cy="290" r="1" fill="#fff"/><circle cx="350" cy="20" r="1" fill="#fff"/><circle cx="350" cy="50" r="1" fill="#fff"/><circle cx="350" cy="80" r="1" fill="#fff"/><circle cx="350" cy="110" r="1" fill="#fff"/><circle cx="350" cy="140" r="1" fill="#fff"/><circle cx="350" cy="170" r="1" fill="#fff"/><circle cx="350" cy="200" r="1" fill="#fff"/><circle cx="350" cy="230" r="1" fill="#fff"/><circle cx="350" cy="260" r="1" fill="#fff"/><circle cx="350" cy="290" r="1" fill="#fff"/><circle cx="380" cy="20" r="1" fill="#fff"/><circle cx="380" cy="50" r="1" fill="#fff"/><circle cx="380" cy="80" r="1" fill="#fff"/><circle cx="380" cy="110" r="1" fill="#fff"/><circle cx="380" cy="140" r="1" fill="#fff"/><circle cx="380" cy="170" r="1" fill="#fff"/><circle cx="380" cy="200" r="1" fill="#fff"/><circle cx="380" cy="230" r="1" fill="#fff"/><circle cx="380" cy="260" r="1" fill="#fff"/><circle cx="380" cy="290" r="1" fill="#fff"/><circle cx="410" cy="20" r="1" fill="#fff"/><circle cx="410" cy="50" r="1" fill="#fff"/><circle cx="410" cy="80" r="1" fill="#fff"/><circle cx="410" cy="110" r="1" fill="#fff"/><circle cx="410" cy="140" r="1" fill="#fff"/><circle cx="410" cy="170" r="1" fill="#fff"/><circle cx="410" cy="200" r="1" fill="#fff"/><circle cx="410" cy="230" r="1" fill="#fff"/><circle cx="410" cy="260" r="1" fill="#fff"/><circle cx="410" cy="290" r="1" fill="#fff"/><circle cx="440" cy="20" r="1" fill="#fff"/><circle cx="440" cy="50" r="1" fill="#fff"/><circle cx="440" cy="80" r="1" fill="#fff"/><circle cx="440" cy="110" r="1" fill="#fff"/><circle cx="440" cy="140" r="1" fill="#fff"/><circle cx="440" cy="170" r="1" fill="#fff"/><circle cx="440" cy="200" r="1" fill="#fff"/><circle cx="440" cy="230" r="1" fill="#fff"/><circle cx="440" cy="260" r="1" fill="#fff"/><circle cx="440" cy="290" r="1" fill="#fff"/><circle cx="470" cy="20" r="1" fill="#fff"/><circle cx="470" cy="50" r="1" fill="#fff"/><circle cx="470" cy="80" r="1" fill="#fff"/><circle cx="470" cy="110" r="1" fill="#fff"/><circle cx="470" cy="140" r="1" fill="#fff"/><circle cx="470" cy="170" r="1" fill="#fff"/><circle cx="470" cy="200" r="1" fill="#fff"/><circle cx="470" cy="230" r="1" fill="#fff"/><circle cx="470" cy="260" r="1" fill="#fff"/><circle cx="470" cy="290" r="1" fill="#fff"/><circle cx="500" cy="20" r="1" fill="#fff"/><circle cx="500" cy="50" r="1" fill="#fff"/><circle cx="500" cy="80" r="1" fill="#fff"/><circle cx="500" cy="110" r="1" fill="#fff"/><circle cx="500" cy="140" r="1" fill="#fff"/><circle cx="500" cy="170" r="1" fill="#fff"/><circle cx="500" cy="200" r="1" fill="#fff"/><circle cx="500" cy="230" r="1" fill="#fff"/><circle cx="500" cy="260" r="1" fill="#fff"/><circle cx="500" cy="290" r="1" fill="#fff"/></g>
<!-- Globe circles -->
<circle cx="200" cy="150" r="110" fill="none" stroke="rgba(59,123,255,0.12)" stroke-width="1.5"/>
<circle cx="200" cy="150" r="85" fill="rgba(59,123,255,0.04)" stroke="rgba(59,123,255,0.15)" stroke-width="1.5"/>
<circle cx="200" cy="150" r="60" fill="rgba(59,123,255,0.07)" stroke="rgba(59,123,255,0.2)" stroke-width="1.5"/>
<!-- Latitude lines -->
<ellipse cx="200" cy="150" rx="85" ry="28" fill="none" stroke="rgba(59,123,255,0.1)" stroke-width="1"/>
<ellipse cx="200" cy="150" rx="85" ry="55" fill="none" stroke="rgba(59,123,255,0.08)" stroke-width="1"/>
<line x1="200" y1="65" x2="200" y2="235" stroke="rgba(59,123,255,0.1)" stroke-width="1"/>
<line x1="115" y1="150" x2="285" y2="150" stroke="rgba(59,123,255,0.1)" stroke-width="1"/>
<!-- Location pins -->
<g>
  <circle cx="160" cy="120" r="5" fill="#3B7BFF"/>
  <line x1="160" y1="115" x2="160" y2="105" stroke="#3B7BFF" stroke-width="1.5"/>
  <text x="160" y="100" text-anchor="middle" font-family="sans-serif" font-size="8" fill="#6A9FFF">🇮🇳 Mumbai</text>
  <circle cx="235" cy="140" r="5" fill="#8B5CF6"/>
  <line x1="235" y1="135" x2="235" y2="125" stroke="#8B5CF6" stroke-width="1.5"/>
  <text x="235" y="120" text-anchor="middle" font-family="sans-serif" font-size="8" fill="#C4B5FD">🇦🇪 Dubai</text>
  <circle cx="175" cy="165" r="5" fill="#22D3EE"/>
  <line x1="175" y1="170" x2="175" y2="180" stroke="#22D3EE" stroke-width="1.5"/>
  <text x="175" y="190" text-anchor="middle" font-family="sans-serif" font-size="8" fill="#67E8F9">🇸🇬 Singapore</text>
  <circle cx="140" cy="148" r="4" fill="#10B981"/>
  <line x1="140" y1="143" x2="130" y2="133" stroke="#10B981" stroke-width="1.5"/>
  <text x="120" y="128" text-anchor="middle" font-family="sans-serif" font-size="8" fill="#34D399">🇬🇧 UK</text>
  <circle cx="220" cy="158" r="4" fill="#F59E0B"/>
  <line x1="220" y1="163" x2="225" y2="173" stroke="#F59E0B" stroke-width="1.5"/>
  <text x="240" y="182" text-anchor="middle" font-family="sans-serif" font-size="8" fill="#FCD34D">🇺🇸 USA</text>
</g>
<!-- Connection arcs between pins -->
<g fill="none" opacity="0.3">
  <path d="M 160,120 Q 195,90 235,140" stroke="#3B7BFF" stroke-width="1" stroke-dasharray="3,3"/>
  <path d="M 160,120 Q 150,110 140,148" stroke="#3B7BFF" stroke-width="1" stroke-dasharray="3,3"/>
  <path d="M 235,140 Q 228,148 220,158" stroke="#8B5CF6" stroke-width="1" stroke-dasharray="3,3"/>
</g>
<!-- Right panel - contact info -->
<rect x="320" y="30" width="180" height="240" rx="16" fill="rgba(255,255,255,0.02)" stroke="rgba(255,255,255,0.07)" stroke-width="1"/>
<text x="410" y="58" text-anchor="middle" font-family="sans-serif" font-size="12" font-weight="700" fill="#EEF2FF">Get in Touch</text>
<line x1="335" y1="66" x2="485" y2="66" stroke="rgba(255,255,255,0.06)" stroke-width="1"/>
<g font-family="sans-serif" font-size="9">
  <text x="335" y="88" fill="#6A9FFF">📍</text><text x="352" y="84" fill="#8896B8">Level 12, Platina Bldg,</text><text x="352" y="96" fill="#8896B8">BKC, Mumbai 400051</text>
  <text x="335" y="120" fill="#10B981">📧</text><text x="352" y="120" fill="#8896B8">hello@elitesaleslab.com</text>
  <text x="335" y="144" fill="#8B5CF6">📞</text><text x="352" y="144" fill="#8896B8">+91 98765 43210</text>
  <text x="335" y="168" fill="#F59E0B">⏰</text><text x="352" y="164" fill="#8896B8">Mon–Fri: 9AM–7PM IST</text><text x="352" y="176" fill="#8896B8">Sat: 10AM–4PM IST</text>
</g>
<rect x="335" y="195" width="150" height="32" rx="16" fill="rgba(59,123,255,0.15)" stroke="#3B7BFF" stroke-width="1.5"/>
<text x="410" y="216" text-anchor="middle" font-family="sans-serif" font-size="10" font-weight="700" fill="#6A9FFF">💬 WhatsApp Chat</text>
<rect x="335" y="236" width="150" height="22" rx="11" fill="rgba(255,255,255,0.04)" stroke="rgba(255,255,255,0.1)" stroke-width="1"/>
<text x="410" y="252" text-anchor="middle" font-family="sans-serif" font-size="9" fill="#4B5982">2hr response SLA</text>
<!-- 18 countries badge -->
<rect x="30" y="256" width="260" height="28" rx="14" fill="rgba(59,123,255,0.08)" stroke="rgba(59,123,255,0.15)" stroke-width="1"/>
<text x="150" y="275" text-anchor="middle" font-family="sans-serif" font-size="10" font-weight="600" fill="#8896B8">🌍 Serving clients in 18 countries worldwide</text>
</svg>